<?xml version="1.0" standalone="no"?>
<!DOCTYPE svg PUBLIC "-//W3C//DTD SVG 20010904//EN"
 "http://www.w3.org/TR/2001/REC-SVG-20010904/DTD/svg10.dtd">
<svg version="1.0" xmlns="http://www.w3.org/2000/svg"
 width="512.000000pt" height="512.000000pt" viewBox="0 0 512.000000 512.000000"
 preserveAspectRatio="xMidYMid meet">

<g transform="translate(0.000000,512.000000) scale(0.100000,-0.100000)"
fill="#000000" stroke="none">
<path d="M10 2555 l0 -2555 2555 0 2555 0 0 2555 0 2555 -2555 0 -2555 0 0
-2555z m2890 1696 c241 -64 417 -180 559 -371 151 -203 217 -405 261 -805 22
-202 52 -366 75 -423 12 -28 19 -33 37 -29 13 4 53 9 89 13 64 6 67 6 84 -20
14 -21 16 -38 10 -94 -11 -110 -44 -291 -70 -382 -13 -46 -22 -87 -19 -89 3
-3 13 0 22 5 11 7 27 53 47 138 16 69 33 126 37 126 4 0 34 -25 67 -56 138
-128 174 -326 89 -487 -56 -104 -152 -167 -255 -167 -42 0 -43 -1 -37 -27 4
-16 29 -116 56 -223 60 -236 65 -322 26 -398 -14 -27 -42 -59 -67 -77 -36 -25
-54 -30 -116 -33 -64 -4 -88 1 -167 28 -129 44 -137 42 -256 -80 -92 -93 -101
-99 -170 -120 -121 -37 -218 -15 -353 78 -41 28 -87 56 -102 62 -38 14 -88 0
-147 -40 -132 -91 -276 -138 -380 -125 -124 16 -207 65 -294 174 -31 39 -71
78 -88 87 -47 24 -110 14 -218 -36 -84 -39 -105 -44 -183 -48 -68 -3 -98 0
-134 13 -63 24 -116 75 -143 137 -20 47 -22 64 -17 158 4 86 14 138 56 288 28
101 51 184 51 185 0 1 -25 0 -56 -1 -46 -3 -66 1 -119 27 -35 17 -78 48 -96
68 -107 122 -119 331 -28 475 29 45 111 128 126 128 5 0 22 -55 38 -122 l30
-122 53 -21 c120 -45 188 -143 180 -260 -3 -49 -10 -70 -31 -98 -15 -20 -27
-39 -27 -42 0 -17 113 -168 174 -233 159 -168 306 -243 505 -259 138 -10 310
39 429 124 l46 32 50 -47 c180 -169 414 -237 647 -188 225 48 445 237 594 509
l37 68 -19 22 c-11 12 -26 31 -32 42 -9 14 -11 15 -7 3 3 -10 1 -20 -4 -23 -5
-3 -7 13 -5 35 4 35 -10 101 -16 75 -13 -62 3 -171 22 -159 6 3 5 13 -3 22
-12 15 -11 16 5 3 16 -13 16 -17 -14 -70 -129 -230 -325 -403 -511 -450 -42
-11 -103 -21 -135 -23 -54 -2 -203 9 -203 16 0 2 11 48 25 104 14 55 28 118
31 139 3 21 8 41 10 44 2 3 6 21 9 40 3 18 8 35 10 37 2 3 64 5 137 6 120 1
139 4 196 28 73 31 172 105 151 113 -8 2 -99 27 -204 55 -104 28 -195 53 -201
55 -7 2 5 65 33 177 24 95 45 182 47 193 3 11 13 58 25 105 11 47 22 97 25
110 8 45 66 288 71 302 3 9 -30 24 -115 51 -153 49 -307 127 -439 222 -58 41
-111 75 -118 75 -23 0 -91 -39 -106 -60 -8 -11 -25 -47 -38 -80 -19 -48 -28
-60 -46 -60 -12 0 -57 -21 -100 -46 -143 -85 -332 -154 -518 -191 -90 -17
-405 -26 -420 -12 -3 4 5 34 19 67 39 92 80 248 126 477 85 423 162 616 321
808 164 197 364 312 633 363 103 20 357 11 456 -15z"/>
<path d="M2224 3540 c-101 -50 -142 -250 -82 -393 68 -160 236 -131 283 48 38
149 -9 312 -101 351 -44 18 -51 18 -100 -6z"/>
<path d="M2834 3546 c-100 -44 -147 -262 -86 -398 21 -48 70 -94 109 -104 39
-10 100 13 127 49 98 128 69 395 -49 448 -48 22 -60 23 -101 5z"/>
<path d="M3365 2177 c-46 -23 -124 -91 -114 -101 7 -7 444 -125 448 -121 2 2
-2 27 -9 54 -36 151 -192 232 -325 168z"/>
<path d="M3756 1938 c3 -5 10 -6 15 -3 13 9 11 12 -6 12 -8 0 -12 -4 -9 -9z"/>
<path d="M3732 1850 c0 -14 2 -19 5 -12 2 6 2 18 0 25 -3 6 -5 1 -5 -13z"/>
</g>
</svg>
